@startuml Car
interface Comparable{
    +int compareTo()
}
class Car implements Comparable{
    -_id:String
    -_model:String
    -_brand:String
    ~Car(id:String, model:String, brand:String)
    +String getId()
    +String getModel()
    +String getBrand()
    +String toString()
    +int compareTo(car:Car)
}
class CarManager
{   
    -cars:List<Car>
    ~CarManager(cars:List<Car>)
    +String getCarsNames()
    +Car getBestCar()
}
class CarRepository 
{
    -_carsDb:List<Car>
    +getById(carId:String)
    +getCars()
}
class ListComparer 
{
    +{static} T getBest(list:List<T>)
}
class ListFormatter {
    +{static} String formatList(list:List<T>)
}

CarManager o-- Car
CarRepository o-- Car
CarManager -- CarRepository
CarManager -- ListComparer
CarManager -- ListFormatter

@enduml